solid OpenSCAD_Model
  facet normal 1 -0 0
    outer loop
      vertex -13.5 -7.5 1.25
      vertex -13.5 7.5 -0.25
      vertex -13.5 7.5 1.25
    endloop
  endfacet
  facet normal 1 0 0
    outer loop
      vertex -13.5 7.5 -0.25
      vertex -13.5 -7.5 1.25
      vertex -13.5 -7.5 -0.25
    endloop
  endfacet
  facet normal 0 0 1
    outer loop
      vertex 13.75 7.75 1.25
      vertex 13.5 7.5 1.25
      vertex 13.75 -7.75 1.25
    endloop
  endfacet
  facet normal 0 0 1
    outer loop
      vertex 13.75 7.75 1.25
      vertex -13.5 7.5 1.25
      vertex 13.5 7.5 1.25
    endloop
  endfacet
  facet normal 0 0 1
    outer loop
      vertex -13.5 7.5 1.25
      vertex -13.75 7.75 1.25
      vertex -13.5 -7.5 1.25
    endloop
  endfacet
  facet normal -0 0 1
    outer loop
      vertex -13.75 7.75 1.25
      vertex -13.5 7.5 1.25
      vertex 13.75 7.75 1.25
    endloop
  endfacet
  facet normal -0 0 1
    outer loop
      vertex 13.5 -7.5 1.25
      vertex 13.75 -7.75 1.25
      vertex 13.5 7.5 1.25
    endloop
  endfacet
  facet normal -0 0 1
    outer loop
      vertex -13.5 -7.5 1.25
      vertex 13.75 -7.75 1.25
      vertex 13.5 -7.5 1.25
    endloop
  endfacet
  facet normal 0 0 1
    outer loop
      vertex -13.5 -7.5 1.25
      vertex -13.75 -7.75 1.25
      vertex 13.75 -7.75 1.25
    endloop
  endfacet
  facet normal 0 0 1
    outer loop
      vertex -13.75 -7.75 1.25
      vertex -13.5 -7.5 1.25
      vertex -13.75 7.75 1.25
    endloop
  endfacet
  facet normal -0 0 1
    outer loop
      vertex -11.5 5.5 1.25
      vertex 11.5 -5.5 1.25
      vertex 11.5 5.5 1.25
    endloop
  endfacet
  facet normal 0 0 1
    outer loop
      vertex 11.5 -5.5 1.25
      vertex -11.5 5.5 1.25
      vertex -11.5 -5.5 1.25
    endloop
  endfacet
  facet normal -1 0 0
    outer loop
      vertex 13.5 -7.5 -0.25
      vertex 13.5 7.5 1.25
      vertex 13.5 7.5 -0.25
    endloop
  endfacet
  facet normal -1 -0 0
    outer loop
      vertex 13.5 7.5 1.25
      vertex 13.5 -7.5 -0.25
      vertex 13.5 -7.5 1.25
    endloop
  endfacet
  facet normal 0 -1 0
    outer loop
      vertex -13.5 7.5 -0.25
      vertex 13.5 7.5 1.25
      vertex -13.5 7.5 1.25
    endloop
  endfacet
  facet normal 0 -1 -0
    outer loop
      vertex 13.5 7.5 1.25
      vertex -13.5 7.5 -0.25
      vertex 13.5 7.5 -0.25
    endloop
  endfacet
  facet normal 0 0 1
    outer loop
      vertex 13.5 7.5 -0.25
      vertex 11.5 5.5 -0.25
      vertex 13.5 -7.5 -0.25
    endloop
  endfacet
  facet normal 0 0 1
    outer loop
      vertex 13.5 7.5 -0.25
      vertex -11.5 5.5 -0.25
      vertex 11.5 5.5 -0.25
    endloop
  endfacet
  facet normal 0 0 1
    outer loop
      vertex -11.5 5.5 -0.25
      vertex -13.5 7.5 -0.25
      vertex -11.5 -5.5 -0.25
    endloop
  endfacet
  facet normal -0 0 1
    outer loop
      vertex -13.5 7.5 -0.25
      vertex -11.5 5.5 -0.25
      vertex 13.5 7.5 -0.25
    endloop
  endfacet
  facet normal -0 0 1
    outer loop
      vertex 11.5 -5.5 -0.25
      vertex 13.5 -7.5 -0.25
      vertex 11.5 5.5 -0.25
    endloop
  endfacet
  facet normal -0 0 1
    outer loop
      vertex -11.5 -5.5 -0.25
      vertex 13.5 -7.5 -0.25
      vertex 11.5 -5.5 -0.25
    endloop
  endfacet
  facet normal 0 0 1
    outer loop
      vertex -11.5 -5.5 -0.25
      vertex -13.5 -7.5 -0.25
      vertex 13.5 -7.5 -0.25
    endloop
  endfacet
  facet normal 0 0 1
    outer loop
      vertex -13.5 -7.5 -0.25
      vertex -11.5 -5.5 -0.25
      vertex -13.5 7.5 -0.25
    endloop
  endfacet
  facet normal 0 1 -0
    outer loop
      vertex 13.5 -7.5 -0.25
      vertex -13.5 -7.5 1.25
      vertex 13.5 -7.5 1.25
    endloop
  endfacet
  facet normal 0 1 0
    outer loop
      vertex -13.5 -7.5 1.25
      vertex 13.5 -7.5 -0.25
      vertex -13.5 -7.5 -0.25
    endloop
  endfacet
  facet normal -1 0 0
    outer loop
      vertex -11.5 -5.5 -0.25
      vertex -11.5 5.5 1.25
      vertex -11.5 5.5 -0.25
    endloop
  endfacet
  facet normal -1 -0 0
    outer loop
      vertex -11.5 5.5 1.25
      vertex -11.5 -5.5 -0.25
      vertex -11.5 -5.5 1.25
    endloop
  endfacet
  facet normal 1 -0 0
    outer loop
      vertex 11.5 -5.5 1.25
      vertex 11.5 5.5 -0.25
      vertex 11.5 5.5 1.25
    endloop
  endfacet
  facet normal 1 0 0
    outer loop
      vertex 11.5 5.5 -0.25
      vertex 11.5 -5.5 1.25
      vertex 11.5 -5.5 -0.25
    endloop
  endfacet
  facet normal 0 -1 0
    outer loop
      vertex -11.5 -5.5 -0.25
      vertex 11.5 -5.5 1.25
      vertex -11.5 -5.5 1.25
    endloop
  endfacet
  facet normal 0 -1 -0
    outer loop
      vertex 11.5 -5.5 1.25
      vertex -11.5 -5.5 -0.25
      vertex 11.5 -5.5 -0.25
    endloop
  endfacet
  facet normal 0 1 -0
    outer loop
      vertex 11.5 5.5 -0.25
      vertex -11.5 5.5 1.25
      vertex 11.5 5.5 1.25
    endloop
  endfacet
  facet normal 0 1 0
    outer loop
      vertex -11.5 5.5 1.25
      vertex 11.5 5.5 -0.25
      vertex -11.5 5.5 -0.25
    endloop
  endfacet
  facet normal -1 0 0
    outer loop
      vertex -13.75 -7.75 -1.25
      vertex -13.75 7.75 1.25
      vertex -13.75 7.75 -1.25
    endloop
  endfacet
  facet normal -1 -0 0
    outer loop
      vertex -13.75 7.75 1.25
      vertex -13.75 -7.75 -1.25
      vertex -13.75 -7.75 1.25
    endloop
  endfacet
  facet normal 1 -0 0
    outer loop
      vertex 13.75 -7.75 1.25
      vertex 13.75 7.75 -1.25
      vertex 13.75 7.75 1.25
    endloop
  endfacet
  facet normal 1 0 0
    outer loop
      vertex 13.75 7.75 -1.25
      vertex 13.75 -7.75 1.25
      vertex 13.75 -7.75 -1.25
    endloop
  endfacet
  facet normal 0 0 -1
    outer loop
      vertex -13.75 -7.75 -1.25
      vertex 13.75 7.75 -1.25
      vertex 13.75 -7.75 -1.25
    endloop
  endfacet
  facet normal -0 0 -1
    outer loop
      vertex 13.75 7.75 -1.25
      vertex -13.75 -7.75 -1.25
      vertex -13.75 7.75 -1.25
    endloop
  endfacet
  facet normal 0 -1 0
    outer loop
      vertex -13.75 -7.75 -1.25
      vertex 13.75 -7.75 1.25
      vertex -13.75 -7.75 1.25
    endloop
  endfacet
  facet normal 0 -1 -0
    outer loop
      vertex 13.75 -7.75 1.25
      vertex -13.75 -7.75 -1.25
      vertex 13.75 -7.75 -1.25
    endloop
  endfacet
  facet normal 0 1 -0
    outer loop
      vertex 13.75 7.75 -1.25
      vertex -13.75 7.75 1.25
      vertex 13.75 7.75 1.25
    endloop
  endfacet
  facet normal 0 1 0
    outer loop
      vertex -13.75 7.75 1.25
      vertex 13.75 7.75 -1.25
      vertex -13.75 7.75 -1.25
    endloop
  endfacet
endsolid OpenSCAD_Model
