solid OpenSCAD_Model
  facet normal 1 -0 0
    outer loop
      vertex -22.75 -12.75 1.5
      vertex -22.75 12.75 -0.5
      vertex -22.75 12.75 1.5
    endloop
  endfacet
  facet normal 1 0 0
    outer loop
      vertex -22.75 12.75 -0.5
      vertex -22.75 -12.75 1.5
      vertex -22.75 -12.75 -0.5
    endloop
  endfacet
  facet normal 0 0 1
    outer loop
      vertex 23 13 1.5
      vertex 22.75 12.75 1.5
      vertex 23 -13 1.5
    endloop
  endfacet
  facet normal 0 0 1
    outer loop
      vertex 23 13 1.5
      vertex -22.75 12.75 1.5
      vertex 22.75 12.75 1.5
    endloop
  endfacet
  facet normal 0 0 1
    outer loop
      vertex -22.75 12.75 1.5
      vertex -23 13 1.5
      vertex -22.75 -12.75 1.5
    endloop
  endfacet
  facet normal -0 0 1
    outer loop
      vertex -23 13 1.5
      vertex -22.75 12.75 1.5
      vertex 23 13 1.5
    endloop
  endfacet
  facet normal -0 0 1
    outer loop
      vertex 22.75 -12.75 1.5
      vertex 23 -13 1.5
      vertex 22.75 12.75 1.5
    endloop
  endfacet
  facet normal -0 0 1
    outer loop
      vertex -22.75 -12.75 1.5
      vertex 23 -13 1.5
      vertex 22.75 -12.75 1.5
    endloop
  endfacet
  facet normal 0 0 1
    outer loop
      vertex -22.75 -12.75 1.5
      vertex -23 -13 1.5
      vertex 23 -13 1.5
    endloop
  endfacet
  facet normal 0 0 1
    outer loop
      vertex -23 -13 1.5
      vertex -22.75 -12.75 1.5
      vertex -23 13 1.5
    endloop
  endfacet
  facet normal -0 0 1
    outer loop
      vertex -20.75 10.75 1.5
      vertex 20.75 -10.75 1.5
      vertex 20.75 10.75 1.5
    endloop
  endfacet
  facet normal 0 0 1
    outer loop
      vertex 20.75 -10.75 1.5
      vertex -20.75 10.75 1.5
      vertex -20.75 -10.75 1.5
    endloop
  endfacet
  facet normal -1 0 0
    outer loop
      vertex 22.75 -12.75 -0.5
      vertex 22.75 12.75 1.5
      vertex 22.75 12.75 -0.5
    endloop
  endfacet
  facet normal -1 -0 0
    outer loop
      vertex 22.75 12.75 1.5
      vertex 22.75 -12.75 -0.5
      vertex 22.75 -12.75 1.5
    endloop
  endfacet
  facet normal 0 0 1
    outer loop
      vertex 22.75 12.75 -0.5
      vertex 20.75 10.75 -0.5
      vertex 22.75 -12.75 -0.5
    endloop
  endfacet
  facet normal 0 0 1
    outer loop
      vertex 22.75 12.75 -0.5
      vertex -20.75 10.75 -0.5
      vertex 20.75 10.75 -0.5
    endloop
  endfacet
  facet normal 0 0 1
    outer loop
      vertex -20.75 10.75 -0.5
      vertex -22.75 12.75 -0.5
      vertex -20.75 -10.75 -0.5
    endloop
  endfacet
  facet normal -0 0 1
    outer loop
      vertex -22.75 12.75 -0.5
      vertex -20.75 10.75 -0.5
      vertex 22.75 12.75 -0.5
    endloop
  endfacet
  facet normal -0 0 1
    outer loop
      vertex 20.75 -10.75 -0.5
      vertex 22.75 -12.75 -0.5
      vertex 20.75 10.75 -0.5
    endloop
  endfacet
  facet normal -0 0 1
    outer loop
      vertex -20.75 -10.75 -0.5
      vertex 22.75 -12.75 -0.5
      vertex 20.75 -10.75 -0.5
    endloop
  endfacet
  facet normal 0 0 1
    outer loop
      vertex -20.75 -10.75 -0.5
      vertex -22.75 -12.75 -0.5
      vertex 22.75 -12.75 -0.5
    endloop
  endfacet
  facet normal 0 0 1
    outer loop
      vertex -22.75 -12.75 -0.5
      vertex -20.75 -10.75 -0.5
      vertex -22.75 12.75 -0.5
    endloop
  endfacet
  facet normal 0 1 -0
    outer loop
      vertex 22.75 -12.75 -0.5
      vertex -22.75 -12.75 1.5
      vertex 22.75 -12.75 1.5
    endloop
  endfacet
  facet normal 0 1 0
    outer loop
      vertex -22.75 -12.75 1.5
      vertex 22.75 -12.75 -0.5
      vertex -22.75 -12.75 -0.5
    endloop
  endfacet
  facet normal 0 -1 0
    outer loop
      vertex -22.75 12.75 -0.5
      vertex 22.75 12.75 1.5
      vertex -22.75 12.75 1.5
    endloop
  endfacet
  facet normal 0 -1 -0
    outer loop
      vertex 22.75 12.75 1.5
      vertex -22.75 12.75 -0.5
      vertex 22.75 12.75 -0.5
    endloop
  endfacet
  facet normal -1 0 0
    outer loop
      vertex -20.75 -10.75 -0.5
      vertex -20.75 10.75 1.5
      vertex -20.75 10.75 -0.5
    endloop
  endfacet
  facet normal -1 -0 0
    outer loop
      vertex -20.75 10.75 1.5
      vertex -20.75 -10.75 -0.5
      vertex -20.75 -10.75 1.5
    endloop
  endfacet
  facet normal 1 -0 0
    outer loop
      vertex 20.75 -10.75 1.5
      vertex 20.75 10.75 -0.5
      vertex 20.75 10.75 1.5
    endloop
  endfacet
  facet normal 1 0 0
    outer loop
      vertex 20.75 10.75 -0.5
      vertex 20.75 -10.75 1.5
      vertex 20.75 -10.75 -0.5
    endloop
  endfacet
  facet normal 0 -1 0
    outer loop
      vertex -20.75 -10.75 -0.5
      vertex 20.75 -10.75 1.5
      vertex -20.75 -10.75 1.5
    endloop
  endfacet
  facet normal 0 -1 -0
    outer loop
      vertex 20.75 -10.75 1.5
      vertex -20.75 -10.75 -0.5
      vertex 20.75 -10.75 -0.5
    endloop
  endfacet
  facet normal 0 1 -0
    outer loop
      vertex 20.75 10.75 -0.5
      vertex -20.75 10.75 1.5
      vertex 20.75 10.75 1.5
    endloop
  endfacet
  facet normal 0 1 0
    outer loop
      vertex -20.75 10.75 1.5
      vertex 20.75 10.75 -0.5
      vertex -20.75 10.75 -0.5
    endloop
  endfacet
  facet normal -1 0 0
    outer loop
      vertex -23 -13 -1.5
      vertex -23 13 1.5
      vertex -23 13 -1.5
    endloop
  endfacet
  facet normal -1 -0 0
    outer loop
      vertex -23 13 1.5
      vertex -23 -13 -1.5
      vertex -23 -13 1.5
    endloop
  endfacet
  facet normal 1 -0 0
    outer loop
      vertex 23 -13 1.5
      vertex 23 13 -1.5
      vertex 23 13 1.5
    endloop
  endfacet
  facet normal 1 0 0
    outer loop
      vertex 23 13 -1.5
      vertex 23 -13 1.5
      vertex 23 -13 -1.5
    endloop
  endfacet
  facet normal 0 1 -0
    outer loop
      vertex 23 13 -1.5
      vertex -23 13 1.5
      vertex 23 13 1.5
    endloop
  endfacet
  facet normal 0 1 0
    outer loop
      vertex -23 13 1.5
      vertex 23 13 -1.5
      vertex -23 13 -1.5
    endloop
  endfacet
  facet normal 0 0 -1
    outer loop
      vertex -23 -13 -1.5
      vertex 23 13 -1.5
      vertex 23 -13 -1.5
    endloop
  endfacet
  facet normal -0 0 -1
    outer loop
      vertex 23 13 -1.5
      vertex -23 -13 -1.5
      vertex -23 13 -1.5
    endloop
  endfacet
  facet normal 0 -1 0
    outer loop
      vertex -23 -13 -1.5
      vertex 23 -13 1.5
      vertex -23 -13 1.5
    endloop
  endfacet
  facet normal 0 -1 -0
    outer loop
      vertex 23 -13 1.5
      vertex -23 -13 -1.5
      vertex 23 -13 -1.5
    endloop
  endfacet
endsolid OpenSCAD_Model
